<svg width="1920" height="539" viewBox="0 0 1920 539" fill="none" xmlns="http://www.w3.org/2000/svg">
<rect width="1920" height="494" fill="url(#paint0_linear_3_2)"/>
<circle opacity="0.9" cx="1294" cy="270" r="170" fill="url(#paint1_linear_3_2)"/>
<path d="M1855.5 353.838L1920 379.511V537.5H0V447.644L99.5 394L222.348 462.949L322.5 425.426L412 447.644L463.5 413.5L506.5 447.644L617.5 364.5L689.5 413.5L737 339L805 353.838L964 285L1039.5 329.5L1139.5 339L1182 329.5L1265 353.838L1348.5 339L1430.5 379.511L1499.5 339L1557 379.511L1649.5 317L1761 379.511L1855.5 353.838Z" fill="#2E003A" stroke="#2E003A"/>
<path d="M72.1127 446.837L0 480.898V538H1920V446.837L1798.5 406.765L1697.65 462.364L1606.01 393.241L1561.44 424.296L1408.2 341.648L1297.53 406.765L1228.92 351.666L1163.32 377.713L985.54 259L835.806 377.713L773.709 326.12L609.953 437.82L558.372 393.241L425.665 480.898L362.066 446.837L308.482 462.364L260.407 424.296L118.685 480.898L72.1127 446.837Z" fill="black" stroke="black"/>
<g opacity="0.05">
<rect width="1920" height="6" fill="black"/>
<rect y="13" width="1920" height="6" fill="black"/>
<rect y="26" width="1920" height="6" fill="black"/>
<rect y="39" width="1920" height="6" fill="black"/>
<rect y="52" width="1920" height="6" fill="black"/>
<rect y="65" width="1920" height="6" fill="black"/>
<rect y="78" width="1920" height="6" fill="black"/>
<rect y="91" width="1920" height="6" fill="black"/>
<rect y="104" width="1920" height="6" fill="black"/>
<rect y="117" width="1920" height="6" fill="black"/>
<rect y="130" width="1920" height="6" fill="black"/>
<rect y="143" width="1920" height="6" fill="black"/>
<rect y="156" width="1920" height="6" fill="black"/>
<rect y="169" width="1920" height="6" fill="black"/>
<rect y="182" width="1920" height="6" fill="black"/>
<rect y="195" width="1920" height="6" fill="black"/>
<rect y="208" width="1920" height="6" fill="black"/>
<rect y="221" width="1920" height="6" fill="black"/>
<rect y="234" width="1920" height="6" fill="black"/>
<rect y="247" width="1920" height="6" fill="black"/>
<rect y="260" width="1920" height="6" fill="black"/>
<rect y="273" width="1920" height="6" fill="black"/>
<rect y="286" width="1920" height="6" fill="black"/>
<rect y="299" width="1920" height="6" fill="black"/>
<rect y="312" width="1920" height="6" fill="black"/>
<rect y="325" width="1920" height="6" fill="black"/>
<rect y="338" width="1920" height="6" fill="black"/>
<rect y="351" width="1920" height="6" fill="black"/>
<rect y="364" width="1920" height="6" fill="black"/>
<rect y="377" width="1920" height="6" fill="black"/>
<rect y="390" width="1920" height="6" fill="black"/>
<rect y="403" width="1920" height="6" fill="black"/>
<rect y="416" width="1920" height="6" fill="black"/>
<rect y="429" width="1920" height="6" fill="black"/>
<rect y="442" width="1920" height="6" fill="black"/>
<rect y="455" width="1920" height="6" fill="black"/>
<rect y="468" width="1920" height="6" fill="black"/>
</g>
<defs>
<linearGradient id="paint0_linear_3_2" x1="960" y1="0" x2="960" y2="494" gradientUnits="userSpaceOnUse">
<stop/>
<stop offset="0.9999" stop-color="#4F006B"/>
</linearGradient>
<linearGradient id="paint1_linear_3_2" x1="1294" y1="100" x2="1294" y2="342.5" gradientUnits="userSpaceOnUse">
<stop stop-color="#DE6EFF"/>
<stop offset="1" stop-color="#2B0043"/>
</linearGradient>
</defs>
</svg>
